General
Complete name                    : Blues Brothers.mkv
Format                           : Matroska
File size                        : 1.75 GiB
Duration                         : 2h 21mn
Overall bit rate                 : 1 771 Kbps

Video
ID                               : 1
Format                           : AVC
Codec ID                         : V_MPEG4/ISO/AVC
Duration                         : 2h 21mn
Bit rate                         : 1 352 Kbps
Width                            : 718 pixels
Height                           : 548 pixels
Display aspect ratio             : 1.863
Frame rate                       : 25.000 fps
Resolution                       : 8 bits
Colorimetry                      : 4:2:0
Scan type                        : Progressive
Bits/(Pixel*Frame)               : 0.137
Stream size                      : 1.34 GiB (76%)
Writing library                  : x264 core 79

Audio
ID                               : 2
Format                           : AC-3
Format/Info                      : Audio Coding 3
Codec ID                         : A_AC3
Duration                         : 2h 21mn
Bit rate mode                    : Constant
Bit rate                         : 384 Kbps
Channel(s)                       : 6 channels
Channel positions                : Front: L C R, Surround: L R, LFE
Sampling rate                    : 48.0 KHz
Stream size                      : 389 MiB (22%)
Language                         : English

Text #1
Language                         : Danish

Text #2
Language                         : Finnish

Text #3
Language                         : Swedish

Text #4
Language                         : Norwegian



